<svg xmlns="http://www.w3.org/2000/svg" xmlns:xlink="http://www.w3.org/1999/xlink" contentStyleType="text/css" data-diagram-type="DESCRIPTION" height="2372px" preserveAspectRatio="none" style="width:852px;height:2372px;background:#F5F5F5;" version="1.1" viewBox="0 0 852 2372" width="852px" zoomAndPan="magnify"><defs/><g><rect fill="#F5F5F5" height="2372" style="stroke:none;stroke-width:1;" width="852" x="0" y="0"/><!--cluster H? th?ng Watchify--><g class="cluster" data-entity="H&#7879; th&#7889;ng Watchify" data-source-line="18" data-uid="ent0009" id="cluster_H&#7879; th&#7889;ng Watchify"><rect fill="none" height="2359" rx="2.5" ry="2.5" style="stroke:#181818;stroke-width:1;" width="367" x="301" y="7"/><text fill="#000000" font-family="Arial" font-size="14" font-weight="bold" lengthAdjust="spacing" textLength="147.0889" x="410.9556" y="21.9951">H&#7879; th&#7889;ng Watchify</text></g><!--cluster GUEST - Ch?c n?ng c?ng khai--><g class="cluster" data-entity="GUEST - Ch&#7913;c n&#259;ng c&#244;ng khai" data-source-line="21" data-uid="ent0010" id="cluster_GUEST - Ch&#7913;c n&#259;ng c&#244;ng khai"><path d="M350.5,50 L583.0742,50 A3.75,3.75 0 0 1 585.5742,52.5 L592.5742,72.2969 L618.5,72.2969 A2.5,2.5 0 0 1 621,74.7969 L621,731.5 A2.5,2.5 0 0 1 618.5,734 L350.5,734 A2.5,2.5 0 0 1 348,731.5 L348,52.5 A2.5,2.5 0 0 1 350.5,50" fill="none" style="stroke:#000000;stroke-width:1.5;"/><line style="stroke:#000000;stroke-width:1.5;" x1="348" x2="592.5742" y1="72.2969" y2="72.2969"/><text fill="#000000" font-family="Arial" font-size="14" font-weight="bold" lengthAdjust="spacing" textLength="231.5742" x="352" y="64.9951">GUEST - Ch&#7913;c n&#259;ng c&#244;ng khai</text></g><!--cluster CUSTOMER - Ch?c n?ng kh?ch h?ng--><g class="cluster" data-entity="CUSTOMER - Ch&#7913;c n&#259;ng kh&#225;ch h&#224;ng" data-source-line="33" data-uid="ent0019" id="cluster_CUSTOMER - Ch&#7913;c n&#259;ng kh&#225;ch h&#224;ng"><path d="M330.5,758 L613.4346,758 A3.75,3.75 0 0 1 615.9346,760.5 L622.9346,780.2969 L638.5,780.2969 A2.5,2.5 0 0 1 641,782.7969 L641,1576.5 A2.5,2.5 0 0 1 638.5,1579 L330.5,1579 A2.5,2.5 0 0 1 328,1576.5 L328,760.5 A2.5,2.5 0 0 1 330.5,758" fill="none" style="stroke:#000000;stroke-width:1.5;"/><line style="stroke:#000000;stroke-width:1.5;" x1="328" x2="622.9346" y1="780.2969" y2="780.2969"/><text fill="#000000" font-family="Arial" font-size="14" font-weight="bold" lengthAdjust="spacing" textLength="281.9346" x="332" y="772.9951">CUSTOMER - Ch&#7913;c n&#259;ng kh&#225;ch h&#224;ng</text></g><!--cluster ADMIN - Ch?c n?ng qu?n tr?--><g class="cluster" data-entity="ADMIN - Ch&#7913;c n&#259;ng qu&#7843;n tr&#7883;" data-source-line="46" data-uid="ent0029" id="cluster_ADMIN - Ch&#7913;c n&#259;ng qu&#7843;n tr&#7883;"><path d="M331,1603 L551.2012,1603 A3.75,3.75 0 0 1 553.7012,1605.5 L560.7012,1625.2969 L638,1625.2969 A2.5,2.5 0 0 1 640.5,1627.7969 L640.5,1951.5 A2.5,2.5 0 0 1 638,1954 L331,1954 A2.5,2.5 0 0 1 328.5,1951.5 L328.5,1605.5 A2.5,2.5 0 0 1 331,1603" fill="none" style="stroke:#000000;stroke-width:1.5;"/><line style="stroke:#000000;stroke-width:1.5;" x1="328.5" x2="560.7012" y1="1625.2969" y2="1625.2969"/><text fill="#000000" font-family="Arial" font-size="14" font-weight="bold" lengthAdjust="spacing" textLength="219.2012" x="332.5" y="1617.9951">ADMIN - Ch&#7913;c n&#259;ng qu&#7843;n tr&#7883;</text></g><!--cluster H? TR? H? TH?NG--><g class="cluster" data-entity="H&#7894; TR&#7906; H&#7878; TH&#7888;NG" data-source-line="55" data-uid="ent0034" id="cluster_H&#7894; TR&#7906; H&#7878; TH&#7888;NG"><path d="M327.5,1978 L476.9561,1978 A3.75,3.75 0 0 1 479.4561,1980.5 L486.4561,2000.2969 L641.5,2000.2969 A2.5,2.5 0 0 1 644,2002.7969 L644,2339.5 A2.5,2.5 0 0 1 641.5,2342 L327.5,2342 A2.5,2.5 0 0 1 325,2339.5 L325,1980.5 A2.5,2.5 0 0 1 327.5,1978" fill="none" style="stroke:#000000;stroke-width:1.5;"/><line style="stroke:#000000;stroke-width:1.5;" x1="325" x2="486.4561" y1="2000.2969" y2="2000.2969"/><text fill="#000000" font-family="Arial" font-size="14" font-weight="bold" lengthAdjust="spacing" textLength="148.4561" x="329" y="1992.9951">H&#7894; TR&#7906; H&#7878; TH&#7888;NG</text></g><!--entity UC_ViewCatalog--><g class="entity" data-entity="UC_ViewCatalog" data-source-line="22" data-uid="ent0011" id="entity_UC_ViewCatalog"><ellipse cx="484.5051" cy="447.901" fill="#F1F1F1" rx="120.0051" ry="26.401" style="stroke:#181818;stroke-width:0.5;"/><text fill="#000000" font-family="Arial" font-size="14" lengthAdjust="spacing" textLength="219.3652" x="374.8225" y="452.5495">UC1: Xem Danh M&#7909;c S&#7843;n Ph&#7849;m</text></g><!--entity UC_ViewProductDetail--><g class="entity" data-entity="UC_ViewProductDetail" data-source-line="23" data-uid="ent0012" id="entity_UC_ViewProductDetail"><ellipse cx="484.729" cy="534.8458" fill="#F1F1F1" rx="112.229" ry="24.8458" style="stroke:#181818;stroke-width:0.5;"/><text fill="#000000" font-family="Arial" font-size="14" lengthAdjust="spacing" textLength="202.6924" x="383.3828" y="539.4942">UC2: Xem Chi Ti&#7871;t S&#7843;n Ph&#7849;m</text></g><!--entity UC_SearchProduct--><g class="entity" data-entity="UC_SearchProduct" data-source-line="24" data-uid="ent0013" id="entity_UC_SearchProduct"><ellipse cx="484.7091" cy="618.1418" fill="#F1F1F1" rx="101.2091" ry="22.6418" style="stroke:#181818;stroke-width:0.5;"/><text fill="#000000" font-family="Arial" font-size="14" lengthAdjust="spacing" textLength="178.7188" x="395.3497" y="622.7903">UC3: T&#236;m Ki&#7871;m S&#7843;n Ph&#7849;m</text></g><!--entity UC_FilterSort--><g class="entity" data-entity="UC_FilterSort" data-source-line="25" data-uid="ent0014" id="entity_UC_FilterSort"><ellipse cx="484.5128" cy="697.1026" fill="#F1F1F1" rx="93.5128" ry="21.1026" style="stroke:#181818;stroke-width:0.5;"/><text fill="#000000" font-family="Arial" font-size="14" lengthAdjust="spacing" textLength="161.6494" x="403.688" y="701.751">UC4: L&#7885;c &amp; S&#7855;p X&#7871;p SP</text></g><!--entity UC_ViewBlog--><g class="entity" data-entity="UC_ViewBlog" data-source-line="26" data-uid="ent0015" id="entity_UC_ViewBlog"><ellipse cx="484.3929" cy="111.9786" fill="#F1F1F1" rx="120.3929" ry="26.4786" style="stroke:#181818;stroke-width:0.5;"/><text fill="#000000" font-family="Arial" font-size="14" lengthAdjust="spacing" textLength="220.1924" x="374.2967" y="116.627">UC5: Xem B&#224;i Vi&#7871;t Chuy&#234;n M&#244;n</text></g><!--entity UC_ViewPromo--><g class="entity" data-entity="UC_ViewPromo" data-source-line="27" data-uid="ent0016" id="entity_UC_ViewPromo"><ellipse cx="484.3652" cy="198.073" fill="#F1F1F1" rx="108.3652" ry="24.073" style="stroke:#181818;stroke-width:0.5;"/><text fill="#000000" font-family="Arial" font-size="14" lengthAdjust="spacing" textLength="194.3389" x="387.1958" y="202.7215">UC6: Xem Ch&#432;&#417;ng Tr&#236;nh KM</text></g><!--entity UC_Register--><g class="entity" data-entity="UC_Register" data-source-line="28" data-uid="ent0017" id="entity_UC_Register"><ellipse cx="484.2979" cy="278.9596" fill="#F1F1F1" rx="97.7979" ry="21.9596" style="stroke:#181818;stroke-width:0.5;"/><text fill="#000000" font-family="Arial" font-size="14" lengthAdjust="spacing" textLength="171.1924" x="398.7017" y="283.608">UC7: &#272;&#259;ng K&#253; T&#224;i Kho&#7843;n</text></g><!--entity UC_Login--><g class="entity" data-entity="UC_Login" data-source-line="29" data-uid="ent0018" id="entity_UC_Login"><ellipse cx="484.4905" cy="360.9981" fill="#F1F1F1" rx="112.9905" ry="24.9981" style="stroke:#181818;stroke-width:0.5;"/><text fill="#000000" font-family="Arial" font-size="14" lengthAdjust="spacing" textLength="204.333" x="382.324" y="365.6465">UC8: &#272;&#259;ng Nh&#7853;p / &#272;&#259;ng Xu&#7845;t</text></g><!--entity UC_ManageProfile--><g class="entity" data-entity="UC_ManageProfile" data-source-line="34" data-uid="ent0020" id="entity_UC_ManageProfile"><ellipse cx="484.5209" cy="1190.1042" fill="#F1F1F1" rx="113.5209" ry="25.1042" style="stroke:#181818;stroke-width:0.5;"/><text fill="#000000" font-family="Arial" font-size="14" lengthAdjust="spacing" textLength="205.4746" x="381.7836" y="1194.7526">UC9: Qu&#7843;n L&#253; H&#7891; S&#417; C&#225; Nh&#226;n</text></g><!--entity UC_ManageCart--><g class="entity" data-entity="UC_ManageCart" data-source-line="35" data-uid="ent0021" id="entity_UC_ManageCart"><ellipse cx="484.5465" cy="1272.2093" fill="#F1F1F1" rx="99.0465" ry="22.2093" style="stroke:#181818;stroke-width:0.5;"/><text fill="#000000" font-family="Arial" font-size="14" lengthAdjust="spacing" textLength="173.9541" x="397.5695" y="1276.8577">UC10: Qu&#7843;n L&#253; Gi&#7887; H&#224;ng</text></g><!--entity UC_ManageWishlist--><g class="entity" data-entity="UC_ManageWishlist" data-source-line="36" data-uid="ent0022" id="entity_UC_ManageWishlist"><ellipse cx="484.651" cy="1359.0302" fill="#F1F1F1" rx="135.651" ry="29.5302" style="stroke:#181818;stroke-width:0.5;"/><text fill="#000000" font-family="Arial" font-size="14" lengthAdjust="spacing" textLength="252.4785" x="358.4117" y="1363.6786">UC11: Qu&#7843;n L&#253; S&#7843;n Ph&#7849;m Y&#234;u Th&#237;ch</text></g><!--entity UC_Checkout--><g class="entity" data-entity="UC_Checkout" data-source-line="37" data-uid="ent0023" id="entity_UC_Checkout"><ellipse cx="484.3471" cy="920.0694" fill="#F1F1F1" rx="118.3471" ry="26.0694" style="stroke:#181818;stroke-width:0.5;"/><text fill="#000000" font-family="Arial" font-size="14" lengthAdjust="spacing" textLength="215.8242" x="376.435" y="924.7179">UC12: &#272;&#7863;t H&#224;ng &amp; Thanh To&#225;n</text></g><!--entity UC_ApplyCoupon--><g class="entity" data-entity="UC_ApplyCoupon" data-source-line="38" data-uid="ent0024" id="entity_UC_ApplyCoupon"><ellipse cx="484.7281" cy="818.2456" fill="#F1F1F1" rx="111.7281" ry="24.7456" style="stroke:#181818;stroke-width:0.5;"/><text fill="#000000" font-family="Arial" font-size="14" lengthAdjust="spacing" textLength="201.6123" x="383.922" y="822.8941">UC13: &#193;p D&#7909;ng M&#227; Gi&#7843;m Gi&#225;</text></g><!--entity UC_ViewOrderHistory--><g class="entity" data-entity="UC_ViewOrderHistory" data-source-line="39" data-uid="ent0025" id="entity_UC_ViewOrderHistory"><ellipse cx="484.6671" cy="1449.1334" fill="#F1F1F1" rx="113.6671" ry="25.1334" style="stroke:#181818;stroke-width:0.5;"/><text fill="#000000" font-family="Arial" font-size="14" lengthAdjust="spacing" textLength="205.7891" x="381.7726" y="1453.7819">UC14: Xem L&#7883;ch S&#7917; Giao D&#7883;ch</text></g><!--entity UC_TrackOrder--><g class="entity" data-entity="UC_TrackOrder" data-source-line="40" data-uid="ent0026" id="entity_UC_TrackOrder"><ellipse cx="484.5652" cy="1012.013" fill="#F1F1F1" rx="140.5652" ry="30.513" style="stroke:#181818;stroke-width:0.5;"/><text fill="#000000" font-family="Arial" font-size="14" lengthAdjust="spacing" textLength="262.7871" x="353.1717" y="1016.6615">UC15: Theo D&#245;i Tr&#7841;ng Th&#225;i &#272;&#417;n H&#224;ng</text></g><!--entity UC_WriteReview--><g class="entity" data-entity="UC_WriteReview" data-source-line="41" data-uid="ent0027" id="entity_UC_WriteReview"><ellipse cx="484.7104" cy="1535.8421" fill="#F1F1F1" rx="119.7104" ry="26.3421" style="stroke:#181818;stroke-width:0.5;"/><text fill="#000000" font-family="Arial" font-size="14" lengthAdjust="spacing" textLength="218.7363" x="375.3423" y="1540.4905">UC16: Vi&#7871;t &#272;&#225;nh Gi&#225; S&#7843;n Ph&#7849;m</text></g><!--entity UC_PostSaleSupport--><g class="entity" data-entity="UC_PostSaleSupport" data-source-line="42" data-uid="ent0028" id="entity_UC_PostSaleSupport"><ellipse cx="484.4037" cy="1104.1807" fill="#F1F1F1" rx="118.9037" ry="26.1807" style="stroke:#181818;stroke-width:0.5;"/><text fill="#000000" font-family="Arial" font-size="14" lengthAdjust="spacing" textLength="217.0137" x="375.8968" y="1108.8292">UC17: Y&#234;u C&#7847;u H&#7895; Tr&#7907; H&#7853;u M&#227;i</text></g><!--entity UC_AdminLogin--><g class="entity" data-entity="UC_AdminLogin" data-source-line="47" data-uid="ent0030" id="entity_UC_AdminLogin"><ellipse cx="484.5397" cy="1748.9079" fill="#F1F1F1" rx="140.0397" ry="30.4079" style="stroke:#181818;stroke-width:0.5;"/><text fill="#000000" font-family="Arial" font-size="14" lengthAdjust="spacing" textLength="261.6865" x="353.6965" y="1753.5564">UC18: &#272;&#259;ng Nh&#7853;p H&#7879; Th&#7889;ng Qu&#7843;n Tr&#7883;</text></g><!--entity UC_ManageProducts--><g class="entity" data-entity="UC_ManageProducts" data-source-line="48" data-uid="ent0031" id="entity_UC_ManageProducts"><ellipse cx="484.6353" cy="1837.2271" fill="#F1F1F1" rx="101.6353" ry="22.7271" style="stroke:#181818;stroke-width:0.5;"/><text fill="#000000" font-family="Arial" font-size="14" lengthAdjust="spacing" textLength="179.6553" x="394.8077" y="1841.8755">UC19: Qu&#7843;n L&#253; S&#7843;n Ph&#7849;m</text></g><!--entity UC_ManageInventory--><g class="entity" data-entity="UC_ManageInventory" data-source-line="49" data-uid="ent0032" id="entity_UC_ManageInventory"><ellipse cx="484.6371" cy="1916.0274" fill="#F1F1F1" rx="95.6371" ry="21.5274" style="stroke:#181818;stroke-width:0.5;"/><text fill="#000000" font-family="Arial" font-size="14" lengthAdjust="spacing" textLength="166.3936" x="401.4403" y="1920.6759">UC20: Qu&#7843;n L&#253; T&#7891;n Kho</text></g><!--entity UC_ManageOrders--><g class="entity" data-entity="UC_ManageOrders" data-source-line="50" data-uid="ent0033" id="entity_UC_ManageOrders"><ellipse cx="484.3086" cy="1661.1617" fill="#F1F1F1" rx="101.3086" ry="22.6617" style="stroke:#181818;stroke-width:0.5;"/><text fill="#000000" font-family="Arial" font-size="14" lengthAdjust="spacing" textLength="178.9375" x="394.8399" y="1665.8102">UC21: Qu&#7843;n L&#253; &#272;&#417;n H&#224;ng</text></g><!--entity UC_ProcessPayment--><g class="entity" data-entity="UC_ProcessPayment" data-source-line="56" data-uid="ent0035" id="entity_UC_ProcessPayment"><ellipse cx="484.7155" cy="2215.1431" fill="#F1F1F1" rx="98.7155" ry="22.1431" style="stroke:#181818;stroke-width:0.5;"/><text fill="#000000" font-family="Arial" font-size="14" lengthAdjust="spacing" textLength="173.2227" x="398.1041" y="2219.7915">UC28: X&#7917; L&#253; Thanh To&#225;n</text></g><!--entity UC_CalcShipping--><g class="entity" data-entity="UC_CalcShipping" data-source-line="57" data-uid="ent0036" id="entity_UC_CalcShipping"><ellipse cx="484.3196" cy="2036.8639" fill="#F1F1F1" rx="107.3196" ry="23.8639" style="stroke:#181818;stroke-width:0.5;"/><text fill="#000000" font-family="Arial" font-size="14" lengthAdjust="spacing" textLength="192.0693" x="388.285" y="2041.5124">UC29: T&#237;nh Ph&#237; V&#7853;n Chuy&#7875;n</text></g><!--entity UC_SendNotification--><g class="entity" data-entity="UC_SendNotification" data-source-line="58" data-uid="ent0037" id="entity_UC_SendNotification"><ellipse cx="484.5033" cy="2299.2007" fill="#F1F1F1" rx="124.0033" ry="27.2007" style="stroke:#181818;stroke-width:0.5;"/><text fill="#000000" font-family="Arial" font-size="14" lengthAdjust="spacing" textLength="227.876" x="370.5653" y="2303.8491">UC30: G&#7917;i Th&#244;ng B&#225;o Email/SMS</text></g><!--entity UC_UpdateShippingStatus--><g class="entity" data-entity="UC_UpdateShippingStatus" data-source-line="59" data-uid="ent0038" id="entity_UC_UpdateShippingStatus"><ellipse cx="484.6307" cy="2127.1261" fill="#F1F1F1" rx="143.6307" ry="31.1261" style="stroke:#181818;stroke-width:0.5;"/><text fill="#000000" font-family="Arial" font-size="14" lengthAdjust="spacing" textLength="269.1992" x="350.031" y="2131.7746">UC31: C&#7853;p Nh&#7853;t Tr&#7841;ng Th&#225;i Giao H&#224;ng</text></g><!--entity Guest--><g class="entity" data-entity="Guest" data-source-line="7" data-uid="ent0002" id="entity_Guest"><ellipse cx="162.5" cy="426" fill="#F1F1F1" rx="16" ry="16" style="stroke:#181818;stroke-width:0.5;"/><path d="M162.5,446 C166.5,446 169.5,446 173.5,442 C181.5,442 189.5,450 189.5,458 L189.5,462 C189.5,466 185.5,470 181.5,470 L143.5,470 C139.5,470 135.5,466 135.5,462 L135.5,458 C135.5,450 143.5,442 151.5,442 C155.5,446 158.5,446 162.5,446" fill="#F1F1F1" style="stroke:#181818;stroke-width:0.5;"/><text fill="#000000" font-family="Arial" font-size="14" lengthAdjust="spacing" textLength="41.1182" x="141.9409" y="483.4951">Guest</text></g><!--entity Customer--><g class="entity" data-entity="Customer" data-source-line="8" data-uid="ent0003" id="entity_Customer"><ellipse cx="40.002" cy="1168" fill="#F1F1F1" rx="16" ry="16" style="stroke:#181818;stroke-width:0.5;"/><path d="M40.002,1188 C44.002,1188 47.002,1188 51.002,1184 C59.002,1184 67.002,1192 67.002,1200 L67.002,1204 C67.002,1208 63.002,1212 59.002,1212 L21.002,1212 C17.002,1212 13.002,1208 13.002,1204 L13.002,1200 C13.002,1192 21.002,1184 29.002,1184 C33.002,1188 36.002,1188 40.002,1188" fill="#F1F1F1" style="stroke:#181818;stroke-width:0.5;"/><text fill="#000000" font-family="Arial" font-size="14" lengthAdjust="spacing" textLength="68.0039" x="6" y="1225.4951">Customer</text></g><!--entity Admin--><g class="entity" data-entity="Admin" data-source-line="9" data-uid="ent0004" id="entity_Admin"><ellipse cx="162.5" cy="1831" fill="#F1F1F1" rx="16" ry="16" style="stroke:#181818;stroke-width:0.5;"/><path d="M162.5,1851 C166.5,1851 169.5,1851 173.5,1847 C181.5,1847 189.5,1855 189.5,1863 L189.5,1867 C189.5,1871 185.5,1875 181.5,1875 L143.5,1875 C139.5,1875 135.5,1871 135.5,1867 L135.5,1863 C135.5,1855 143.5,1847 151.5,1847 C155.5,1851 158.5,1851 162.5,1851" fill="#F1F1F1" style="stroke:#181818;stroke-width:0.5;"/><text fill="#000000" font-family="Arial" font-size="14" lengthAdjust="spacing" textLength="44.8643" x="140.0679" y="1888.4951">Admin</text></g><!--entity PaymentGateway--><g class="entity" data-entity="PaymentGateway" data-source-line="10" data-uid="ent0005" id="entity_PaymentGateway"><ellipse cx="780.1074" cy="2177" fill="#F1F1F1" rx="16" ry="16" style="stroke:#181818;stroke-width:0.5;"/><path d="M780.1074,2197 C784.1074,2197 787.1074,2197 791.1074,2193 C799.1074,2193 807.1074,2201 807.1074,2209 L807.1074,2213 C807.1074,2217 803.1074,2221 799.1074,2221 L761.1074,2221 C757.1074,2221 753.1074,2217 753.1074,2213 L753.1074,2209 C753.1074,2201 761.1074,2193 769.1074,2193 C773.1074,2197 776.1074,2197 780.1074,2197" fill="#F1F1F1" style="stroke:#181818;stroke-width:0.5;"/><text fill="#000000" font-family="Arial" font-size="14" lengthAdjust="spacing" textLength="128.2148" x="716" y="2234.4951">Payment Gateway</text></g><!--entity ShippingService--><g class="entity" data-entity="ShippingService" data-source-line="11" data-uid="ent0006" id="entity_ShippingService"><ellipse cx="780.1318" cy="2046" fill="#F1F1F1" rx="16" ry="16" style="stroke:#181818;stroke-width:0.5;"/><path d="M780.1318,2066 C784.1318,2066 787.1318,2066 791.1318,2062 C799.1318,2062 807.1318,2070 807.1318,2078 L807.1318,2082 C807.1318,2086 803.1318,2090 799.1318,2090 L761.1318,2090 C757.1318,2090 753.1318,2086 753.1318,2082 L753.1318,2078 C753.1318,2070 761.1318,2062 769.1318,2062 C773.1318,2066 776.1318,2066 780.1318,2066" fill="#F1F1F1" style="stroke:#181818;stroke-width:0.5;"/><text fill="#000000" font-family="Arial" font-size="14" lengthAdjust="spacing" textLength="117.2637" x="721.5" y="2103.4951">Shipping Service</text></g><!--entity EmailSMSSystem--><g class="entity" data-entity="EmailSMSSystem" data-source-line="12" data-uid="ent0007" id="entity_EmailSMSSystem"><ellipse cx="780.0337" cy="2289" fill="#F1F1F1" rx="16" ry="16" style="stroke:#181818;stroke-width:0.5;"/><path d="M780.0337,2309 C784.0337,2309 787.0337,2309 791.0337,2305 C799.0337,2305 807.0337,2313 807.0337,2321 L807.0337,2325 C807.0337,2329 803.0337,2333 799.0337,2333 L761.0337,2333 C757.0337,2333 753.0337,2329 753.0337,2325 L753.0337,2321 C753.0337,2313 761.0337,2305 769.0337,2305 C773.0337,2309 776.0337,2309 780.0337,2309" fill="#F1F1F1" style="stroke:#181818;stroke-width:0.5;"/><text fill="#000000" font-family="Arial" font-size="14" lengthAdjust="spacing" textLength="130.0674" x="715" y="2346.4951">Email/SMS System</text></g><!--link Customer to Guest--><g class="link" data-entity-1="Customer" data-entity-2="Guest" data-source-line="15" data-uid="lnk8" id="link_Customer_Guest"><path d="M47.27,1151.41 C68.04,1023.5 131.6037,632.0671 152.3637,504.2771" fill="none" id="Customer-to-Guest" style="stroke:#181818;stroke-width:1;"/><polygon fill="none" points="155.25,486.51,146.4413,503.315,158.286,505.2392,155.25,486.51" style="stroke:#181818;stroke-width:1;"/></g><!--link Guest to UC_ViewCatalog--><g class="link" data-entity-1="Guest" data-entity-2="UC_ViewCatalog" data-source-line="64" data-uid="lnk39" id="link_Guest_UC_ViewCatalog"><path d="M190.23,448 C228.39,448 294.86,448 358.21,448" fill="none" id="Guest-to-UC_ViewCatalog" style="stroke:#181818;stroke-width:1;"/><polygon fill="#181818" points="364.21,448,355.21,444,359.21,448,355.21,452,364.21,448" style="stroke:#181818;stroke-width:1;"/></g><!--link Guest to UC_ViewProductDetail--><g class="link" data-entity-1="Guest" data-entity-2="UC_ViewProductDetail" data-source-line="65" data-uid="lnk40" id="link_Guest_UC_ViewProductDetail"><path d="M190.03,457.93 C216.02,467.45 256.89,481.82 293,492 C327.92,501.84 361.0666,509.6971 394.6466,516.9871" fill="none" id="Guest-to-UC_ViewProductDetail" style="stroke:#181818;stroke-width:1;"/><polygon fill="#181818" points="400.51,518.26,392.5635,512.4417,395.6238,517.1992,390.8663,520.2596,400.51,518.26" style="stroke:#181818;stroke-width:1;"/></g><!--link Guest to UC_SearchProduct--><g class="link" data-entity-1="Guest" data-entity-2="UC_SearchProduct" data-source-line="66" data-uid="lnk41" id="link_Guest_UC_SearchProduct"><path d="M190.21,484.35 C213.9,513.89 251.17,554.27 293,577 C323.02,593.31 353.1064,602.0688 385.6764,607.9788" fill="none" id="Guest-to-UC_SearchProduct" style="stroke:#181818;stroke-width:1;"/><polygon fill="#181818" points="391.58,609.05,383.4388,603.5074,386.6603,608.1573,382.0104,611.3789,391.58,609.05" style="stroke:#181818;stroke-width:1;"/></g><!--link Guest to UC_FilterSort--><g class="link" data-entity-1="Guest" data-entity-2="UC_FilterSort" data-source-line="67" data-uid="lnk42" id="link_Guest_UC_FilterSort"><path d="M174.51,486.84 C191.02,536.83 227.47,621.6 293,658 C324.14,675.29 356.0349,684.0147 389.7549,689.3947" fill="none" id="Guest-to-UC_FilterSort" style="stroke:#181818;stroke-width:1;"/><polygon fill="#181818" points="395.68,690.34,387.4226,684.972,390.7425,689.5522,386.1622,692.872,395.68,690.34" style="stroke:#181818;stroke-width:1;"/></g><!--link Guest to UC_ViewBlog--><g class="link" data-entity-1="Guest" data-entity-2="UC_ViewBlog" data-source-line="68" data-uid="lnk43" id="link_Guest_UC_ViewBlog"><path d="M167.49,409.38 C176.57,343.89 205.32,212.67 293,156 C317.52,140.15 341.2115,131.3297 369.6315,124.8197" fill="none" id="Guest-to-UC_ViewBlog" style="stroke:#181818;stroke-width:1;"/><polygon fill="#181818" points="375.48,123.48,365.8141,121.5905,370.6062,124.5964,367.6003,129.3885,375.48,123.48" style="stroke:#181818;stroke-width:1;"/></g><!--link Guest to UC_ViewPromo--><g class="link" data-entity-1="Guest" data-entity-2="UC_ViewPromo" data-source-line="69" data-uid="lnk44" id="link_Guest_UC_ViewPromo"><path d="M174.99,409.4 C191.93,360.11 228.76,276.7 293,239 C320.43,222.9 347.5097,214.242 378.2497,208.282" fill="none" id="Guest-to-UC_ViewPromo" style="stroke:#181818;stroke-width:1;"/><polygon fill="#181818" points="384.14,207.14,374.5432,204.9262,379.2314,208.0917,376.0659,212.7799,384.14,207.14" style="stroke:#181818;stroke-width:1;"/></g><!--link Guest to UC_Register--><g class="link" data-entity-1="Guest" data-entity-2="UC_Register" data-source-line="70" data-uid="lnk45" id="link_Guest_UC_Register"><path d="M190.15,410.63 C213.68,380.62 250.75,339.98 293,318 C323.55,302.11 354.085,293.6966 386.875,288.1166" fill="none" id="Guest-to-UC_Register" style="stroke:#181818;stroke-width:1;"/><polygon fill="#181818" points="392.79,287.11,383.2465,284.6765,387.8609,287.9488,384.5886,292.5632,392.79,287.11" style="stroke:#181818;stroke-width:1;"/></g><!--link Guest to UC_Login--><g class="link" data-entity-1="Guest" data-entity-2="UC_Login" data-source-line="71" data-uid="lnk46" id="link_Guest_UC_Login"><path d="M190.09,434.51 C199.39,430.12 210.01,425.49 220,422 C277.07,402.04 337.4949,387.8884 389.3249,377.5984" fill="none" id="Guest-to-UC_Login" style="stroke:#181818;stroke-width:1;"/><polygon fill="#181818" points="395.21,376.43,385.6034,374.2592,390.3057,377.4037,387.1612,382.106,395.21,376.43" style="stroke:#181818;stroke-width:1;"/></g><!--link Customer to UC_ManageProfile--><g class="link" data-entity-1="Customer" data-entity-2="UC_ManageProfile" data-source-line="73" data-uid="lnk47" id="link_Customer_UC_ManageProfile"><path d="M74.26,1190 C136.37,1190 266.57,1190 364.81,1190" fill="none" id="Customer-to-UC_ManageProfile" style="stroke:#181818;stroke-width:1;"/><polygon fill="#181818" points="370.81,1190,361.81,1186,365.81,1190,361.81,1194,370.81,1190" style="stroke:#181818;stroke-width:1;"/></g><!--link Customer to UC_ManageCart--><g class="link" data-entity-1="Customer" data-entity-2="UC_ManageCart" data-source-line="74" data-uid="lnk48" id="link_Customer_UC_ManageCart"><path d="M74.26,1196.16 C144.61,1209.2 304.1104,1238.7569 401.7404,1256.8469" fill="none" id="Customer-to-UC_ManageCart" style="stroke:#181818;stroke-width:1;"/><polygon fill="#181818" points="407.64,1257.94,399.5194,1252.3672,402.7237,1257.029,398.0619,1260.2333,407.64,1257.94" style="stroke:#181818;stroke-width:1;"/></g><!--link Customer to UC_ManageWishlist--><g class="link" data-entity-1="Customer" data-entity-2="UC_ManageWishlist" data-source-line="75" data-uid="lnk49" id="link_Customer_UC_ManageWishlist"><path d="M74.3,1208.67 C121.67,1234.59 211.77,1281.6 293,1311 C322.83,1321.79 350.2934,1329.6479 380.6034,1337.0979" fill="none" id="Customer-to-UC_ManageWishlist" style="stroke:#181818;stroke-width:1;"/><polygon fill="#181818" points="386.43,1338.53,378.6449,1332.4974,381.5745,1337.3366,376.7354,1340.2662,386.43,1338.53" style="stroke:#181818;stroke-width:1;"/></g><!--link Customer to UC_Checkout--><g class="link" data-entity-1="Customer" data-entity-2="UC_Checkout" data-source-line="76" data-uid="lnk50" id="link_Customer_UC_Checkout"><path d="M69.58,1151.32 C79.87,1138.31 91.93,1124.06 104,1112 C148.03,1068.01 182.88,1016.41 293,964 C321.5,950.43 348.5776,942.1975 378.9576,935.5775" fill="none" id="Customer-to-UC_Checkout" style="stroke:#181818;stroke-width:1;"/><polygon fill="#181818" points="384.82,934.3,375.1747,932.3079,379.9346,935.3646,376.878,940.1245,384.82,934.3" style="stroke:#181818;stroke-width:1;"/></g><!--link Customer to UC_ViewOrderHistory--><g class="link" data-entity-1="Customer" data-entity-2="UC_ViewOrderHistory" data-source-line="77" data-uid="lnk51" id="link_Customer_UC_ViewOrderHistory"><path d="M74.31,1228.67 C118.95,1277.86 203.03,1361.75 293,1406 C321.9,1420.22 349.7159,1428.5773 380.6559,1435.0173" fill="none" id="Customer-to-UC_ViewOrderHistory" style="stroke:#181818;stroke-width:1;"/><polygon fill="#181818" points="386.53,1436.24,378.534,1430.4899,381.6349,1435.2211,376.9037,1438.3221,386.53,1436.24" style="stroke:#181818;stroke-width:1;"/></g><!--link Customer to UC_TrackOrder--><g class="link" data-entity-1="Customer" data-entity-2="UC_TrackOrder" data-source-line="78" data-uid="lnk52" id="link_Customer_UC_TrackOrder"><path d="M74.08,1159.92 C83.39,1152.25 93.77,1144.37 104,1138 C116.83,1130.01 121.1,1129.95 135,1124 C204.65,1094.18 220.98,1083.53 293,1060 C322.83,1050.25 349.9965,1042.7547 380.0265,1035.3047" fill="none" id="Customer-to-UC_TrackOrder" style="stroke:#181818;stroke-width:1;"/><polygon fill="#181818" points="385.85,1033.86,376.1517,1032.1448,380.9971,1035.0639,378.0779,1039.9094,385.85,1033.86" style="stroke:#181818;stroke-width:1;"/></g><!--link Customer to UC_WriteReview--><g class="link" data-entity-1="Customer" data-entity-2="UC_WriteReview" data-source-line="79" data-uid="lnk53" id="link_Customer_UC_WriteReview"><path d="M40.11,1228.58 C40.11,1330.27 55.9,1605.94 220,1724 C243.45,1740.87 263.79,1743.61 285,1724 C301.69,1708.56 279.93,1640.6 293,1622 C317.2,1587.56 352.8818,1568.5489 390.9118,1556.0089" fill="none" id="Customer-to-UC_WriteReview" style="stroke:#181818;stroke-width:1;"/><polygon fill="#181818" points="396.61,1554.13,386.8101,1553.1496,391.8615,1555.6958,389.3153,1560.7472,396.61,1554.13" style="stroke:#181818;stroke-width:1;"/></g><!--link Customer to UC_PostSaleSupport--><g class="link" data-entity-1="Customer" data-entity-2="UC_PostSaleSupport" data-source-line="80" data-uid="lnk54" id="link_Customer_UC_PostSaleSupport"><path d="M74.16,1174.61 C83.64,1170.68 94.09,1166.79 104,1164 C193.58,1138.81 292.2604,1123.9547 368.9504,1115.0147" fill="none" id="Customer-to-UC_PostSaleSupport" style="stroke:#181818;stroke-width:1;"/><polygon fill="#181818" points="374.91,1114.32,365.5074,1111.389,369.9436,1114.8989,366.4337,1119.3352,374.91,1114.32" style="stroke:#181818;stroke-width:1;"/></g><!--link Admin to UC_AdminLogin--><g class="link" data-entity-1="Admin" data-entity-2="UC_AdminLogin" data-source-line="82" data-uid="lnk55" id="link_Admin_UC_AdminLogin"><path d="M190.38,1846.57 C216.24,1839.5 255.64,1826.37 285,1806 C289.4,1802.95 288.42,1799.78 293,1797 C315.89,1783.11 336.8563,1774.7799 362.9663,1767.7499" fill="none" id="Admin-to-UC_AdminLogin" style="stroke:#181818;stroke-width:1;"/><polygon fill="#181818" points="368.76,1766.19,359.0295,1764.6674,363.9319,1767.4899,361.1094,1772.3923,368.76,1766.19" style="stroke:#181818;stroke-width:1;"/></g><!--link Admin to UC_ManageProducts--><g class="link" data-entity-1="Admin" data-entity-2="UC_ManageProducts" data-source-line="83" data-uid="lnk56" id="link_Admin_UC_ManageProducts"><path d="M190.05,1851.7 C214.66,1850.49 252.31,1848.63 285,1847 C317.65,1845.37 347.3376,1843.8817 379.3176,1842.2717" fill="none" id="Admin-to-UC_ManageProducts" style="stroke:#181818;stroke-width:1;"/><polygon fill="#181818" points="385.31,1841.97,376.1203,1838.4276,380.3163,1842.2214,376.5225,1846.4175,385.31,1841.97" style="stroke:#181818;stroke-width:1;"/></g><!--link Admin to UC_ManageInventory--><g class="link" data-entity-1="Admin" data-entity-2="UC_ManageInventory" data-source-line="84" data-uid="lnk57" id="link_Admin_UC_ManageInventory"><path d="M190.23,1858.26 C238.53,1867.77 335.9131,1886.9406 406.0831,1900.7606" fill="none" id="Admin-to-UC_ManageInventory" style="stroke:#181818;stroke-width:1;"/><polygon fill="#181818" points="411.97,1901.92,403.9126,1896.2562,407.0642,1900.9538,402.3667,1904.1055,411.97,1901.92" style="stroke:#181818;stroke-width:1;"/></g><!--link Admin to UC_ManageOrders--><g class="link" data-entity-1="Admin" data-entity-2="UC_ManageOrders" data-source-line="85" data-uid="lnk58" id="link_Admin_UC_ManageOrders"><path d="M190.24,1831.59 C199.55,1824.29 210.14,1816.16 220,1809 C248.22,1788.49 266.76,1794.74 285,1765 C299.98,1740.56 273.58,1722.09 293,1701 C315.89,1676.14 344.0234,1665.4699 377.0534,1660.6299" fill="none" id="Admin-to-UC_ManageOrders" style="stroke:#181818;stroke-width:1;"/><polygon fill="#181818" points="382.99,1659.76,373.5052,1657.1071,378.0428,1660.4849,374.665,1665.0226,382.99,1659.76" style="stroke:#181818;stroke-width:1;"/></g><!--link UC_Checkout to UC_CalcShipping--><g class="link" data-entity-1="UC_Checkout" data-entity-2="UC_CalcShipping" data-source-line="90" data-uid="lnk59" id="link_UC_Checkout_UC_CalcShipping"><path d="M366.56,923.42 C338.66,930.01 311.64,942.23 293,964 C219.48,1049.87 253.91,1358.53 258,1471.5 C265.78,1686.37 168.58,1778.65 293,1954 C318.16,1989.46 356.0605,2008.2045 395.3405,2019.9245" fill="none" id="UC_Checkout-to-UC_CalcShipping" style="stroke:#181818;stroke-width:1;stroke-dasharray:7.0,7.0;"/><polygon fill="#181818" points="401.09,2021.64,393.6094,2015.2337,396.2987,2020.2104,391.322,2022.8998,401.09,2021.64" style="stroke:#181818;stroke-width:1;"/><text fill="#000000" font-family="Arial" font-size="13" lengthAdjust="spacing" textLength="63.0068" x="221" y="1467.5669">&#171;include&#187;</text></g><!--link UC_Checkout to UC_ProcessPayment--><g class="link" data-entity-1="UC_Checkout" data-entity-2="UC_ProcessPayment" data-source-line="91" data-uid="lnk60" id="link_UC_Checkout_UC_ProcessPayment"><path d="M366.52,923.38 C338.62,929.98 311.6,942.21 293,964 C218.89,1050.82 261.89,1362.41 258,1476.5 C252.7,1631.83 191.92,2056.95 293,2175 C315.97,2201.83 345.9372,2212.7086 380.4772,2217.0686" fill="none" id="UC_Checkout-to-UC_ProcessPayment" style="stroke:#181818;stroke-width:1;stroke-dasharray:7.0,7.0;"/><polygon fill="#181818" points="386.43,2217.82,378.0018,2212.7244,381.4694,2217.1938,376.9999,2220.6614,386.43,2217.82" style="stroke:#181818;stroke-width:1;"/><text fill="#000000" font-family="Arial" font-size="13" lengthAdjust="spacing" textLength="63.0068" x="221" y="1489.5669">&#171;include&#187;</text></g><!--link UC_Checkout to UC_SendNotification--><g class="link" data-entity-1="UC_Checkout" data-entity-2="UC_SendNotification" data-source-line="92" data-uid="lnk61" id="link_UC_Checkout_UC_SendNotification"><path d="M366.48,923.35 C338.58,929.94 311.57,942.18 293,964 C215.85,1054.64 261.89,1379.53 258,1498.5 C252.51,1666.48 185.54,2124.77 293,2254 C310.47,2275.01 329.9167,2285.7563 356.3867,2292.7063" fill="none" id="UC_Checkout-to-UC_SendNotification" style="stroke:#181818;stroke-width:1;stroke-dasharray:7.0,7.0;"/><polygon fill="#181818" points="362.19,2294.23,354.5009,2288.0756,357.3539,2292.9602,352.4692,2295.8133,362.19,2294.23" style="stroke:#181818;stroke-width:1;"/><text fill="#000000" font-family="Arial" font-size="13" lengthAdjust="spacing" textLength="63.0068" x="221" y="1511.5669">&#171;include&#187;</text></g><!--reverse link UC_Checkout to UC_ApplyCoupon--><g class="link" data-entity-1="UC_Checkout" data-entity-2="UC_ApplyCoupon" data-source-line="95" data-uid="lnk62" id="link_UC_Checkout_UC_ApplyCoupon"><path d="M484.5,888 C484.5,872.18 484.5,858.1 484.5,842.55" fill="none" id="UC_Checkout-backto-UC_ApplyCoupon" style="stroke:#181818;stroke-width:1;stroke-dasharray:7.0,7.0;"/><polygon fill="#181818" points="484.5,894,488.5,885,484.5,889,480.5,885,484.5,894" style="stroke:#181818;stroke-width:1;"/><text fill="#000000" font-family="Arial" font-size="13" lengthAdjust="spacing" textLength="61.1851" x="442.5" y="872.8169">&#171;extend&#187;</text></g><!--link UC_ManageOrders to UC_UpdateShippingStatus--><g class="link" data-entity-1="UC_ManageOrders" data-entity-2="UC_UpdateShippingStatus" data-source-line="98" data-uid="lnk63" id="link_UC_ManageOrders_UC_UpdateShippingStatus"><path d="M410.82,1645.51 C360.08,1639.58 295.33,1642.27 258,1683.5 C198.92,1748.74 235.87,2011.05 293,2078 C308.26,2095.88 323.3912,2105.7341 345.6812,2113.4641" fill="none" id="UC_ManageOrders-to-UC_UpdateShippingStatus" style="stroke:#181818;stroke-width:1;stroke-dasharray:7.0,7.0;"/><polygon fill="#181818" points="351.35,2115.43,344.1574,2108.702,346.626,2113.7918,341.5362,2116.2604,351.35,2115.43" style="stroke:#181818;stroke-width:1;"/><text fill="#000000" font-family="Arial" font-size="13" lengthAdjust="spacing" textLength="63.0068" x="221" y="1696.5669">&#171;include&#187;</text></g><!--link UC_ManageOrders to UC_SendNotification--><g class="link" data-entity-1="UC_ManageOrders" data-entity-2="UC_SendNotification" data-source-line="99" data-uid="lnk64" id="link_UC_ManageOrders_UC_SendNotification"><path d="M388.25,1653.8 C341.52,1655.96 288.93,1667.9 258,1705.5 C219.2,1752.66 253.52,2207.41 293,2254 C310.66,2274.85 330.1862,2285.5383 356.6562,2292.4783" fill="none" id="UC_ManageOrders-to-UC_SendNotification" style="stroke:#181818;stroke-width:1;stroke-dasharray:7.0,7.0;"/><polygon fill="#181818" points="362.46,2294,354.7687,2287.8483,357.6235,2292.7319,352.7398,2295.5867,362.46,2294" style="stroke:#181818;stroke-width:1;"/><text fill="#000000" font-family="Arial" font-size="13" lengthAdjust="spacing" textLength="63.0068" x="221" y="1718.5669">&#171;include&#187;</text></g><!--reverse link UC_TrackOrder to UC_SendNotification--><g class="link" data-entity-1="UC_TrackOrder" data-entity-2="UC_SendNotification" data-source-line="102" data-uid="lnk65" id="link_UC_TrackOrder_UC_SendNotification"><path d="M346.4127,1024.2017 C323.7727,1031.8117 308.34,1041.77 293,1060 C160.88,1217.04 266.56,1315.42 259,1520.5 C252.99,1683.56 188.67,2128.54 293,2254 C310.47,2275.01 335.72,2287.28 362.19,2294.22" fill="none" id="UC_TrackOrder-backto-UC_SendNotification" style="stroke:#181818;stroke-width:1;stroke-dasharray:7.0,7.0;"/><polygon fill="#181818" points="352.1,1022.29,342.2946,1021.366,347.3606,1023.8831,344.8435,1028.9491,352.1,1022.29" style="stroke:#181818;stroke-width:1;"/><text fill="#000000" font-family="Arial" font-size="13" lengthAdjust="spacing" textLength="61.1851" x="222" y="1533.5669">&#171;extend&#187;</text></g><!--link UC_PostSaleSupport to UC_SendNotification--><g class="link" data-entity-1="UC_PostSaleSupport" data-entity-2="UC_SendNotification" data-source-line="105" data-uid="lnk66" id="link_UC_PostSaleSupport_UC_SendNotification"><path d="M366.07,1106.85 C338.35,1113.33 311.53,1125.41 293,1147 C219.09,1233.12 261.89,1543.08 258,1656.5 C253.44,1789.43 207.3,2152.28 293,2254 C310.6,2274.89 330.1067,2285.5963 356.5767,2292.5463" fill="none" id="UC_PostSaleSupport-to-UC_SendNotification" style="stroke:#181818;stroke-width:1;stroke-dasharray:7.0,7.0;"/><polygon fill="#181818" points="362.38,2294.07,354.6909,2287.9156,357.5439,2292.8002,352.6592,2295.6533,362.38,2294.07" style="stroke:#181818;stroke-width:1;"/><text fill="#000000" font-family="Arial" font-size="13" lengthAdjust="spacing" textLength="63.0068" x="221" y="1669.5669">&#171;include&#187;</text></g><!--link UC_ProcessPayment to PaymentGateway--><g class="link" data-entity-1="UC_ProcessPayment" data-entity-2="PaymentGateway" data-source-line="108" data-uid="lnk67" id="link_UC_ProcessPayment_PaymentGateway"><path d="M580.39,2209.83 C624.77,2207.41 670.4189,2204.916 709.9289,2202.766" fill="none" id="UC_ProcessPayment-to-PaymentGateway" style="stroke:#181818;stroke-width:1;"/><polygon fill="#181818" points="715.92,2202.44,706.716,2198.9349,710.9274,2202.7117,707.1506,2206.9231,715.92,2202.44" style="stroke:#181818;stroke-width:1;"/></g><!--link UC_CalcShipping to ShippingService--><g class="link" data-entity-1="UC_CalcShipping" data-entity-2="ShippingService" data-source-line="109" data-uid="lnk68" id="link_UC_CalcShipping_ShippingService"><path d="M582.01,2047.19 C628.12,2052.06 675.7932,2057.0996 715.4532,2061.2896" fill="none" id="UC_CalcShipping-to-ShippingService" style="stroke:#181818;stroke-width:1;"/><polygon fill="#181818" points="721.42,2061.92,712.8901,2056.9966,716.4477,2061.3947,712.0496,2064.9523,721.42,2061.92" style="stroke:#181818;stroke-width:1;"/></g><!--link UC_SendNotification to EmailSMSSystem--><g class="link" data-entity-1="UC_SendNotification" data-entity-2="EmailSMSSystem" data-source-line="110" data-uid="lnk69" id="link_UC_SendNotification_EmailSMSSystem"><path d="M606.57,2303.95 C643.68,2305.47 677.0549,2306.8363 708.7949,2308.1263" fill="none" id="UC_SendNotification-to-EmailSMSSystem" style="stroke:#181818;stroke-width:1;"/><polygon fill="#181818" points="714.79,2308.37,705.9599,2304.0078,709.7941,2308.167,705.635,2312.0012,714.79,2308.37" style="stroke:#181818;stroke-width:1;"/></g><!--reverse link UC_UpdateShippingStatus to ShippingService--><g class="link" data-entity-1="UC_UpdateShippingStatus" data-entity-2="ShippingService" data-source-line="111" data-uid="lnk70" id="link_UC_UpdateShippingStatus_ShippingService"><path d="M596.1023,2104.7674 C640.2223,2095.8974 683.99,2087.1 721.3,2079.6" fill="none" id="UC_UpdateShippingStatus-backto-ShippingService" style="stroke:#181818;stroke-width:1;"/><polygon fill="#181818" points="590.22,2105.95,599.8318,2108.0976,595.1219,2104.9645,598.2551,2100.2546,590.22,2105.95" style="stroke:#181818;stroke-width:1;"/></g><!--SRC=[bLTVRzjK57_FfpWQ4eE7TgnimAgkKkgsITGcxMgdxPxGhNCRM_MVu5ntH329CGcaJHETa4231vPLOwnQOH8WH2p6Wwj-3tyJphssK_lQeLihfUazVwxFERzppiyMtMN0NF3Chi6WOtfKPwRhLFfxfjCZ7h61wCprL3QmA91RjE_QD2FS8VfUrtDzfwEubkl1MyjN-Mz6eqDtYM-nPTTXBM9Jg7eciIgLYt2zv0TE3gBWNgiEhLhzv9SgAE4T1JJ-qQg7NxPARIhY0U52pQTzTW587yItz5Zn-moVsHEIz9zKMEtOfYCaubjwl4u6DdKOr0YZjyX0A2HdoL6ggHfchsSwNL2fjs_gLAYcXybPghja4zEwf3PLK0TzHcsXAmxnB3wQc9SRxMeBwb7m5Qn4erUWuTUZQdawqXXXQkhp-IGNazmAZzpPGQi6MrLDgJUMRvQxvS0WJXTHS07rlmPcHC5337oBCDqmTp59drKg0EKNNOUskWHAbNz4mSzLgBMNLArS5Ptq45MaYpV5QbEWu6NFTN1ExkADUlW7VkuPnEHt0lxuVQgJFkgtbSkpi4rjM2IE0SqeUAg36eqE7LWtej7pEELjvUDDazvI22EMsvKTpCGE5CC4pOn6_xA93jOzj-FhR94oBA7ivlrPnEqB6rQu3xlKXqg9fnk95zd-oYoiHi437Txcjh_rO1lzz41TJwsNJOjHJtMzWkdLE8A5yB49ct48Yk4FmYC7cfYwR0WB9Gdu84t0wSlJ8IPQyy8NcCoLfXIxxSgM7yvY_ueIhOJ_OFXu_uhXyiXJqmtQDH7ddcpvqTYoXIawxi6bzFzjFnezPQdzgjl5BWMu_GPGKzggjjPSsZWVRMDD2N1xHZZK3J32nqwt17BNPk66B-gxYc5ZStmBwkaGPzSGemcVZ8Dl4WUlmSpjcXOjuFQzd9UQ6GNVG3s-CMkka6B1Br_EsMQn1ZV38nyq8ppMZRoZBRDlM5YCWhCPNejez1UBhqS0QWRl9iqDX-DO58FgUwvVj4RSXtTwi8YjXxRDy927CZgqyKyuJAshlPurK5o_vpe51rTY-27uxsFErIWuHbFYSe_tpsBW65ppEjIhOmYkDoYumIRG38fcuP_Oo5uq4b36GfeO7U8wdrlDGmm8VmL7s0v94vqSO08C4KXfFszv9gCRT1yVhU05MqDKGeb6ptoEaU_vGmM7-7LqxFCycQcRTRVFL69HrU_rukv-4xHN5vkDrlbGZzKad7yIOuZXWzql6ws5BXMBG4iMGO90BRPE2istQjgqUMVN9cAsq2zyFlOBSphVC1gsdSF7JTwwuUpZqYu1o4o-Pqem4JiGe8WllmZJqzEuVOOwTmJ2anWDe4V1Cv9GYDSj5-RkEz0sek09d5UiZ6fsOPUKQ0PBjCrRHgIasBQOJ9ts-mcNALXVuqlh68tMSM309jRO4QiZ2kwUTJwnz9JW59OUrgI6rvkyq_YINWY7BenvpzdYSpejbvcxfau4sPJTO6qK0J21CoRrhnW7kLArUnsaPMFQnGZp-w8GjoSodzL6UAybo9J6iNEKPPby_BrgdPMgj3w2M277cfVvH46GvmavSPu2v4IP_Lxmk33f7jp9kUFnlisTnWsP9OhpnVrKBXNhfrmqNYYoUBmhP45XYCiAcR4iYxB3LfR94xGYEZELPcPIxbmQDoMois5I8am6nKJ08HazQ6HuVAqH1RycRpZ_ZxIBwJuM10HVkLpeuhIpur6qS_eo2dx4lyWI6UpuKV18hsIo3jFpSjl2BCpDcOvk-HqwFr-Yd1yJvwhB_ImPO02S4dHYIc0Z9UZ6bA3BDwaLFWOx2du2t1kFKCx2lmUWuqvvu2HpDHjzxlQvQObCY8lffmoV9xutcV0Md_0F-OIFK_YEgD-xsLIASUF4uuObuuQ9SREF3zWLGut5Gsq7Xrf5gdkIYR91L4nVYU7vAHHifiFPJ3OIFVnTl8dTpULjZzCzuDHxoCgV_QopaYoMFa0sbOA-w8A-69o-C45V345ViAPc9fcbDqfD-TfndpkzDwFWXqR-JNQ1IrkrjV2BHdbB5J7EUrbwnPUxXgl8h_Pb8N0zwRL-4ZJcfgPab_y1]--></g></svg>